<?xml version="1.0" encoding="utf-8"?>
<!-- Generator: Adobe Illustrator 24.2.1, SVG Export Plug-In . SVG Version: 6.00 Build 0)  -->
<svg version="1.1"
	 id="svg12" inkscape:version="1.0 (4035a4fb49, 2020-05-01)" sodipodi:docname="facebook.svg" xmlns:cc="http://creativecommons.org/ns#" xmlns:dc="http://purl.org/dc/elements/1.1/" xmlns:inkscape="http://www.inkscape.org/namespaces/inkscape" xmlns:rdf="http://www.w3.org/1999/02/22-rdf-syntax-ns#" xmlns:sodipodi="http://sodipodi.sourceforge.net/DTD/sodipodi-0.dtd" xmlns:svg="http://www.w3.org/2000/svg"
	 xmlns="http://www.w3.org/2000/svg" xmlns:xlink="http://www.w3.org/1999/xlink" x="0px" y="0px" viewBox="0 0 1024 1024"
	 style="enable-background:new 0 0 1024 1024;" xml:space="preserve">
<style type="text/css">
	.st0{fill:#FFFFFF;stroke:#000000;stroke-miterlimit:10;}
	.st1{fill:#352F31;}
</style>
<sodipodi:namedview  bordercolor="#666666" borderopacity="1" gridtolerance="10" guidetolerance="10" id="namedview14" inkscape:current-layer="svg12" inkscape:cx="682.66562" inkscape:cy="682.66562" inkscape:document-rotation="0" inkscape:pageopacity="0" inkscape:pageshadow="2" inkscape:window-height="1017" inkscape:window-maximized="1" inkscape:window-width="1920" inkscape:window-x="2936" inkscape:window-y="-8" inkscape:zoom="0.62255955" objecttolerance="10" pagecolor="#ffffff" showgrid="false">
	</sodipodi:namedview>
<g>
	<path class="st0" d="M592.1,412.2c0,0.5,0,1.1,0,1.6C592,413.2,592,412.7,592.1,412.2z"/>
	<path class="st0" d="M592.1,410.3c0,0.6,0,1.2-0.1,1.7C592.1,411.4,592.1,410.8,592.1,410.3z"/>
	<path class="st0" d="M592.7,402.7c-0.1,0.6-0.1,1.2-0.2,1.8C592.6,404,592.7,403.3,592.7,402.7z"/>
	<path class="st0" d="M592.2,408.4c0,0.4,0,0.8-0.1,1.1C592.2,409.1,592.2,408.8,592.2,408.4z"/>
	<path class="st0" d="M592.5,404.6c-0.1,0.5-0.1,1-0.1,1.5C592.4,405.6,592.5,405.1,592.5,404.6z"/>
	<path class="st0" d="M592.4,406.5c0,0.5-0.1,0.9-0.1,1.4C592.3,407.4,592.3,406.9,592.4,406.5z"/>
	<path class="st0" d="M592.8,402.6c4.1-34.8,25.4-65.6,79.7-66.6C618.1,337.1,596.8,367.9,592.8,402.6z"/>
	<path class="st0" d="M592,414.1c0,0.6,0,1.3,0,1.9C592,415.3,592,414.7,592,414.1z"/>
	<path class="st1" d="M711.3,660L734,512H592v-96c0-0.6,0-1.3,0-1.9c0-0.1,0-0.2,0-0.3c0-0.5,0-1.1,0-1.6c0,0,0-0.1,0-0.1
		c0-0.6,0-1.2,0.1-1.7c0-0.2,0-0.5,0-0.7c0-0.4,0-0.8,0.1-1.1c0-0.2,0-0.3,0-0.5c0-0.5,0.1-0.9,0.1-1.4c0-0.1,0-0.2,0-0.3
		c0-0.5,0.1-1,0.1-1.5c0,0,0,0,0,0c0.1-0.6,0.1-1.2,0.2-1.8c0,0,0-0.1,0-0.1c4.1-34.8,25.3-65.6,79.7-66.6c1,0,2,0,2.9,0H740V210
		c0,0-58.6-10-114.6-10c-116.9,0-193.4,70.9-193.4,199.2V512H302v148h130v343.8c26.1,4.1,52.8,6.2,80,6.2s53.9-2.2,80-6.2V660H711.3
		z"/>
	<path class="st0" d="M675.4,336c-1,0-2,0-2.9,0C673.5,336,674.4,336,675.4,336z"/>
	<path class="st0" d="M592.4,406.1c0,0.1,0,0.2,0,0.3C592.4,406.4,592.4,406.3,592.4,406.1z"/>
	<path class="st0" d="M592.5,404.6C592.5,404.6,592.5,404.6,592.5,404.6C592.5,404.6,592.5,404.6,592.5,404.6z"/>
	<path class="st0" d="M592.8,402.6c0,0,0,0.1,0,0.1C592.7,402.7,592.7,402.7,592.8,402.6z"/>
	<path class="st0" d="M592,413.8c0,0.1,0,0.2,0,0.3C592,414,592,413.9,592,413.8z"/>
	<path class="st0" d="M592.3,407.9c0,0.2,0,0.3,0,0.5C592.2,408.2,592.3,408,592.3,407.9z"/>
	<path class="st0" d="M625.4,199.9c-116.9,0-193.4,70.8-193.4,199.2C432,270.9,508.5,199.9,625.4,199.9z"/>
	<path class="st0" d="M592.1,412c0,0,0,0.1,0,0.1C592.1,412.1,592.1,412.1,592.1,412z"/>
	<path class="st0" d="M592.2,409.5c0,0.2,0,0.5,0,0.7C592.1,410,592.2,409.8,592.2,409.5z"/>
</g>
</svg>
