<?xml version="1.0" encoding="utf-8"?>
<!-- Generator: Adobe Illustrator 24.2.1, SVG Export Plug-In . SVG Version: 6.00 Build 0)  -->
<svg version="1.1" id="Layer_1" xmlns="http://www.w3.org/2000/svg" xmlns:xlink="http://www.w3.org/1999/xlink" x="0px" y="0px"
	 viewBox="0 0 50 50" style="enable-background:new 0 0 50 50;" xml:space="preserve">
<style type="text/css">
	.st0{fill:#352F31;}
</style>
<g>
	<path class="st0" d="M25,50.6"/>
	<path class="st0" d="M18.8,48.6v-4.7c-7,1.5-8.5-3.4-8.5-3.4c-0.5-1.5-1.4-2.8-2.8-3.7c-2.3-1.5,0.2-1.5,0.2-1.5
		c1.6,0.2,3,1.2,3.8,2.6c1.4,2.6,4.7,3.5,7.3,2.1c0,0,0,0,0,0c0.1-1.3,0.6-2.4,1.5-3.3C14.8,36,9,33.9,9,24.4c0-2.5,0.9-4.9,2.6-6.7
		c-0.7-2.2-0.7-4.5,0.2-6.6c0,0,2.1-0.7,6.9,2.6c4.1-1.1,8.4-1.1,12.5,0c4.8-3.2,6.9-2.6,6.9-2.6c0.9,2.1,1,4.4,0.3,6.6
		c1.7,1.8,2.6,4.2,2.6,6.7c0,9.6-5.8,11.7-11.4,12.3c1.2,1.2,1.8,2.9,1.7,4.6v7.3c0,0.6-0.5,1-1,1l-10.4,0
		C19.3,49.6,18.8,49.1,18.8,48.6z"/>
</g>
</svg>
